<svg width="129" height="88" viewBox="0 0 129 88" fill="none" xmlns="http://www.w3.org/2000/svg">
<path d="M64.4133 88.0076C51.3945 88.0076 37.9016 82.5764 24.3091 71.8672C13.4759 63.3338 5.39715 53.6166 1.54621 48.5841C-0.515403 45.8879 -0.515403 42.1221 1.54621 39.4259C5.39715 34.3935 13.4759 24.6737 24.3066 16.1404C37.9016 5.43119 51.3945 0 64.4133 0C77.4321 0 90.9249 5.43119 104.518 16.1404C115.348 24.6737 123.427 34.391 127.278 39.4259C129.34 42.1221 129.34 45.8879 127.278 48.5841C123.427 53.6166 115.348 63.3363 104.518 71.8696C90.9225 82.5788 77.4296 88.01 64.4133 88.01V88.0076ZM5.40931 45.6278C12.1436 54.4286 36.2995 83.1453 64.4133 83.1453C92.5271 83.1453 116.683 54.4286 123.417 45.6278C124.149 44.6724 124.149 43.3352 123.417 42.3798C116.683 33.579 92.5271 4.8623 64.4133 4.8623C36.2995 4.8623 12.1436 33.579 5.40931 42.3798C4.67753 43.3352 4.67753 44.6724 5.40931 45.6302V45.6278Z" fill="#444444"/>
<path d="M64.413 73.1775C48.3261 73.1775 35.2393 60.0906 35.2393 44.0037C35.2393 27.9168 48.3261 14.83 64.413 14.83C80.5 14.83 93.5868 27.9168 93.5868 44.0037C93.5868 60.0906 80.5 73.1775 64.413 73.1775ZM64.413 19.6923C51.0077 19.6923 40.1016 30.5984 40.1016 44.0037C40.1016 57.4091 51.0077 68.3152 64.413 68.3152C77.8184 68.3152 88.7245 57.4091 88.7245 44.0037C88.7245 30.5984 77.8184 19.6923 64.413 19.6923Z" fill="#444444"/>
</svg>
