<svg width="135" height="44" viewBox="0 0 135 44" fill="none" xmlns="http://www.w3.org/2000/svg">
<path d="M17.7012 44C12.3494 44 7.35198 43.0832 2.93411 41.2472C1.31831 40.5756 0.204753 39.0697 0.0252204 37.3163C-0.154312 35.5583 0.634268 33.8484 2.08417 32.8536C29.4618 14.07 53.0942 3.92065 76.4539 0.908859C95.0003 -1.48178 114.183 0.865309 131.93 7.69571C134.234 8.58275 135.459 10.9711 134.841 13.3755C134.225 15.7776 132.011 17.2652 129.571 16.9145C109.847 14.0792 89.1689 16.6944 71.3429 24.2743C66.4728 26.3441 61.6459 28.8402 56.9758 31.2537C50.6103 34.5429 44.0267 37.9466 37.1022 40.4129C30.4004 42.8012 23.819 43.9977 17.7012 44ZM90.6779 4.58536C86.1101 4.58536 81.5513 4.87416 77.0312 5.45635C54.4077 8.37188 31.4048 18.2805 4.63853 36.6424C4.60444 36.6653 4.53172 36.7158 4.54536 36.8441C4.55672 36.9633 4.6249 36.9908 4.6658 37.0092C13.1016 40.5183 24.0849 40.1906 35.5886 36.0923C42.2245 33.7269 48.6695 30.3965 54.9032 27.1761C59.646 24.7259 64.5502 22.1908 69.5771 20.0523C88.1486 12.1538 109.686 9.42853 130.212 12.3784C130.318 12.3945 130.359 12.3784 130.359 12.3784C130.393 12.3601 130.461 12.2363 130.45 12.1057C130.446 12.0553 130.443 12.0323 130.307 11.9773C117.587 7.08144 104.1 4.58307 90.6757 4.58307L90.6779 4.58536Z" fill="#444444"/>
</svg>
