<svg width="135" height="57" viewBox="0 0 135 57" fill="none" xmlns="http://www.w3.org/2000/svg">
<path d="M67.7406 36.1266C54.0434 36.1266 39.8146 31.7733 25.4464 23.1906C13.9348 16.3136 5.34181 8.47403 1.244 4.41234C0.232444 3.40853 0.224703 1.77508 1.22851 0.763527C2.23232 -0.248024 3.86577 -0.255766 4.87733 0.748044C12.0304 7.83665 37.6986 30.9656 67.738 30.9656C97.7775 30.9656 123.448 7.83665 130.601 0.748044C131.613 -0.255766 133.246 -0.248024 134.25 0.763527C135.254 1.77508 135.246 3.40853 134.235 4.41234C130.137 8.47403 121.544 16.3136 110.035 23.188C95.6667 31.7733 81.4353 36.124 67.7406 36.124V36.1266Z" fill="#444444"/>
<path d="M67.7397 56.2466C66.3152 56.2466 65.1592 55.0905 65.1592 53.6661V35.8298C65.1592 34.4053 66.3152 33.2493 67.7397 33.2493C69.1641 33.2493 70.3202 34.4053 70.3202 35.8298V53.6661C70.3202 55.0905 69.1641 56.2466 67.7397 56.2466Z" fill="#444444"/>
<path d="M32.7662 51.7281C32.0333 51.7281 31.303 51.4159 30.7921 50.812C29.8734 49.7231 30.0102 48.0948 31.0992 47.1761C36.1698 42.8951 39.9812 37.0271 41.8314 30.6533C42.2288 29.2856 43.6584 28.496 45.0287 28.8934C46.3963 29.2908 47.1859 30.7229 46.7885 32.0906C44.6596 39.4321 40.2702 46.1878 34.428 51.1191C33.9429 51.5268 33.3519 51.7281 32.7636 51.7281H32.7662Z" fill="#444444"/>
<path d="M103.403 51.7282C102.814 51.7282 102.223 51.5295 101.738 51.1192C95.8987 46.1879 91.5093 39.4296 89.3804 32.0907C88.983 30.723 89.77 29.2908 91.1403 28.8934C92.5079 28.496 93.9401 29.2831 94.3375 30.6533C96.1877 37.0271 99.9991 42.8952 105.07 47.1762C106.159 48.0949 106.295 49.7232 105.377 50.8121C104.866 51.416 104.138 51.7282 103.403 51.7282Z" fill="#444444"/>
<path d="M2.58001 36.3355C1.41879 36.3355 0.363367 35.5458 0.0743524 34.3666C-0.263692 32.9834 0.582709 31.5848 1.96843 31.2467C9.56797 29.3862 16.6695 25.1929 21.9672 19.4384C22.9323 18.3907 24.5658 18.3211 25.6135 19.2888C26.6611 20.2539 26.7308 21.8873 25.7631 22.935C19.7841 29.4301 11.7691 34.1627 3.19416 36.2632C2.98772 36.3148 2.78129 36.338 2.58001 36.338V36.3355Z" fill="#444444"/>
<path d="M132.42 36.3356C132.216 36.3356 132.01 36.3123 131.806 36.2607C123.231 34.1628 115.216 29.4302 109.237 22.9325C108.272 21.8848 108.339 20.2514 109.387 19.2863C110.434 18.3212 112.068 18.3883 113.033 19.4359C118.33 25.1904 125.432 29.3863 133.032 31.2443C134.415 31.5823 135.264 32.9809 134.926 34.3641C134.637 35.5434 133.581 36.333 132.42 36.333V36.3356Z" fill="#444444"/>
</svg>
