<svg width="135" height="141" viewBox="0 0 135 141" fill="none" xmlns="http://www.w3.org/2000/svg">
<path d="M101.138 139.267C100.384 139.267 99.6538 138.859 99.2739 138.142C96.4395 132.803 95.8274 126.601 97.4525 119.704C99.1452 112.52 102.837 106.484 105.633 102.686C108.204 99.1973 111.089 95.8954 113.879 92.6998C118.953 86.8911 123.746 81.4056 126.92 74.7932C130.856 66.5926 131.82 56.6698 129.638 46.8512C127.513 37.2962 122.583 28.3493 115.753 21.6625C109.054 15.1012 100.688 10.2812 90.8846 7.33642C81.7375 4.58729 71.6703 3.65178 61.7698 4.63407C52.5046 5.55257 39.3961 8.53345 29.5631 17.5186C25.2998 21.4138 21.8977 26.5208 19.9855 31.9C17.9678 37.5747 17.6238 43.3536 18.9893 48.6095L19.1645 49.2793L18.9134 49.9235C16.5432 56.0086 12.0457 61.6493 5.91038 66.2312L5.80063 66.312C5.16325 66.7882 4.50266 67.2794 4.3106 67.7344C3.83995 68.8464 5.79219 70.5685 7.77609 71.8102C9.80009 73.0753 12.1322 75.3524 12.6092 77.9485C12.8709 79.3687 12.5564 80.7189 11.7038 81.8542C11.3999 82.2582 11.0601 82.575 10.7878 82.8301C10.7055 82.9067 10.6021 83.0045 10.5156 83.0917C10.7963 83.3829 11.3513 83.8018 11.7143 84.0718C13.12 85.1285 15.0448 86.5743 14.9814 89.0279C14.9477 90.3249 14.3187 91.305 13.8608 92.0194C13.6666 92.3235 13.483 92.6105 13.4091 92.8146C13.1622 93.5035 13.7172 94.6091 14.3061 95.7785C14.5593 96.2845 14.8232 96.8054 15.0511 97.3518C16.7585 101.451 15.8362 105.616 14.9435 109.645C14.5636 111.357 14.2069 112.973 14.0507 114.555C13.9853 115.227 14.0338 115.45 14.0591 115.514C14.1309 115.575 14.4369 115.726 15.0806 115.769C17.7821 115.945 20.6145 114.621 23.1154 113.453L53.2855 99.3526C56.5884 97.809 60.0054 96.2122 62.5929 93.7629C64.6401 91.8238 66.6557 88.5729 66.1787 85.2582C66.012 84.0973 66.8097 83.0172 67.9642 82.8493C69.1166 82.6792 70.1887 83.485 70.3554 84.648C70.9591 88.8344 69.1377 93.3993 65.4843 96.8607C62.4008 99.782 58.5027 101.604 55.0625 103.212L24.8925 117.312C22.0813 118.626 18.5799 120.263 14.8063 120.015C12.2968 119.849 11.0791 118.722 10.5008 117.806C9.72622 116.579 9.74733 115.201 9.85285 114.138C10.0344 112.301 10.4375 110.481 10.8258 108.723C11.6088 105.189 12.3475 101.851 11.1614 98.9996C10.9925 98.5935 10.7752 98.1598 10.543 97.7005C9.66713 95.9571 8.57598 93.7884 9.4413 91.3731C9.67768 90.7118 10.0175 90.1803 10.3172 89.7125C10.4818 89.4553 10.7287 89.0683 10.7625 88.9152C10.6612 88.5835 9.70934 87.867 9.19437 87.4801C7.76765 86.4085 5.38064 84.614 6.42535 81.75C6.77781 80.7805 7.43841 80.1639 7.91961 79.7132C8.08845 79.5537 8.26362 79.39 8.34804 79.2794C8.4599 79.1306 8.51689 78.9903 8.46623 78.7181C8.29106 77.7635 7.03952 76.3453 5.55792 75.4183C-0.379 71.706 -0.505633 68.2808 0.435664 66.0611C1.07727 64.543 2.3077 63.6266 3.29754 62.8888L3.40307 62.8102C8.68995 58.8619 12.5987 54.0908 14.7408 48.9816C13.3627 43.0857 13.8017 36.6987 16.0177 30.4606C18.1894 24.3479 21.8955 18.7816 26.7329 14.3634C32.6297 8.97569 43.4251 2.17622 61.3582 0.398747C71.7969 -0.636695 82.4235 0.354098 92.0918 3.25844C102.554 6.40304 111.502 11.5675 118.695 18.6115C126.105 25.8681 131.453 35.5676 133.756 45.9199C136.147 56.6698 135.069 67.5813 130.719 76.643C127.295 83.7784 122.085 89.7423 117.047 95.5085C114.314 98.636 111.488 101.872 109.022 105.219C106.46 108.697 103.088 114.204 101.56 120.686C100.179 126.544 100.663 131.743 102.995 136.137C103.544 137.173 103.157 138.461 102.129 139.014C101.813 139.184 101.471 139.265 101.135 139.265L101.138 139.267Z" fill="#444444"/>
<path d="M46.4148 140.481C46.2143 140.481 46.0095 140.451 45.8069 140.392C44.6905 140.054 44.0573 138.869 44.3908 137.745C46.1172 131.942 46.7947 125.934 46.4042 119.887C46.2881 118.082 46.0644 116.211 45.2329 114.733C43.9771 112.505 41.0688 111.28 38.6121 111.948C37.4872 112.252 36.3285 111.582 36.0246 110.449C35.7207 109.316 36.3876 108.148 37.5125 107.842C41.8096 106.675 46.706 108.735 48.9031 112.635C50.1588 114.865 50.4733 117.412 50.6168 119.613C51.0389 126.166 50.3045 132.676 48.4345 138.967C48.1602 139.888 47.3223 140.483 46.4127 140.483L46.4148 140.481Z" fill="#444444"/>
<path d="M76.0508 93.0697C75.0462 93.0697 74.0838 92.7954 73.2755 92.249C72.3089 91.5941 72.0514 90.2738 72.7014 89.2979C73.3515 88.3241 74.6621 88.0647 75.6308 88.7196C75.8524 88.8684 76.3949 88.8578 76.9204 88.5814C77.6633 88.1901 78.3598 87.412 79.033 86.6593L90.0415 74.3382C91.2382 72.9987 92.475 71.6146 92.9942 70.071C93.5303 68.4764 93.2707 66.752 92.9604 65.5848C91.8524 61.4217 88.3341 58.0964 84.4043 57.4947C80.3838 56.8803 76.1141 59.3509 74.8837 62.9993C74.508 64.1113 73.3114 64.7067 72.2076 64.3282C71.1037 63.9497 70.5128 62.7442 70.8885 61.6322C72.7753 56.0298 78.9929 52.3664 85.0375 53.2892C90.662 54.1481 95.4825 58.6471 97.0358 64.4813C97.6985 66.9689 97.6817 69.3715 96.9915 71.4317C96.1958 73.8045 94.5918 75.5969 93.1778 77.1809L82.1693 89.502C81.3314 90.4396 80.2909 91.6048 78.8705 92.3489C77.9588 92.8273 76.9858 93.0676 76.0487 93.0676L76.0508 93.0697Z" fill="#444444"/>
</svg>
