<?xml version="1.0" encoding="UTF-8"?>
<svg id="_レイヤー_1" data-name="レイヤー 1" xmlns="http://www.w3.org/2000/svg" viewBox="0 0 231.52 129.48">
  <defs>
    <style>
      .cls-1 {
        fill: #0e0c0c;
      }

      .cls-2 {
        fill: #e3e3e3;
      }

      .cls-3 {
        fill: #fff;
      }

      .cls-4 {
        fill: #dabc36;
      }

      .cls-5 {
        fill: #e7cdcf;
      }
    </style>
  </defs>
  <rect class="cls-3" width="231.52" height="129.48"/>
  <g>
    <path class="cls-5" d="M21.21,71.92c.87,1.81,2.73,2.8,4.68,2.96,2.19.18,4.19-.82,5.86-2.17,3.66-2.96,6.62-7.19,9.19-11.09,5.33-8.12,9.02-17.22,11.86-26.47,1.62-5.28,2.97-10.65,4.2-16.03l-2.41-.66c-1.35,9.69-2.05,19.77-1.15,29.54.14,1.5.86,3.37,2.69,3.18s2.92-2.87,3.76-4.24c2.39-3.9,4.56-7.93,6.52-12.06,2.26-4.78,4.23-9.7,5.91-14.71.51-1.53-1.9-2.19-2.41-.66-2.53,7.56-5.75,14.87-9.64,21.84-.97,1.73-1.97,3.44-3.02,5.12-.28.45-.57.9-.85,1.35-.1.15-.33.4-.37.58.02-.09-.33.61-.02.34.24-.21.01.29.04-.15,0-.12-.08-.31-.1-.44-.09-.52-.08-1.07-.11-1.6-.23-4.3-.27-8.62-.12-12.93.18-4.85.6-9.68,1.27-14.49.22-1.54-2.04-2.28-2.41-.66-3.89,17-9.04,34.62-20.49,48.2-1.52,1.8-3.13,3.83-5.21,5.01-1.81,1.03-4.5,1.13-5.53-1.01-.7-1.45-2.85-.18-2.16,1.26h0Z"/>
    <path class="cls-5" d="M69.83,41.73c-3.85,8.35-7.79,16.65-11.84,24.91-.71,1.44,1.45,2.71,2.16,1.26,4.05-8.25,8-16.56,11.84-24.91.67-1.45-1.49-2.72-2.16-1.26h0Z"/>
    <path class="cls-5" d="M80.66,46.72c-1.86.23-3.8-.37-5.61.32s-2.83,2.45-3.73,4.06c-1.99,3.57-3.19,7.48-3.68,11.54-.05.38.26.93.62,1.08,2.19.94,3.96-.44,5.53-1.88s2.98-3.06,4.23-4.79c2.5-3.46,4.26-7.46,5.17-11.63.34-1.56-2.01-2.23-2.41-.66-.62,2.45-.98,4.96-1.02,7.49-.03,2.05-.07,4.43.91,6.3.92,1.77,2.89,2.43,4.7,1.63,2.05-.9,3.71-2.99,5.14-4.65,1.05-1.21-.71-2.99-1.77-1.77-1.12,1.3-2.35,2.81-3.77,3.79-.5.34-1.18.74-1.74.3-.44-.34-.6-1.03-.72-1.54-.36-1.62-.3-3.39-.22-5.04.09-1.98.41-3.92.9-5.84l-2.41-.66c-.75,3.45-2.09,6.71-3.99,9.68-.95,1.48-2.03,2.87-3.24,4.14-.6.64-1.23,1.25-1.89,1.83-.43.38-1.47,1.45-2.14,1.16l.62,1.08c.4-3.35,1.42-6.65,2.99-9.64.65-1.23,1.45-3.17,2.88-3.65s3.14.07,4.64-.12c1.58-.2,1.6-2.7,0-2.5h0Z"/>
    <path class="cls-5" d="M95.03,20.12c-.51,13.56-1.89,27.07-4.14,40.45-.27,1.57,2.14,2.25,2.41.66,2.29-13.6,3.71-27.33,4.23-41.11.06-1.61-2.44-1.61-2.5,0h0Z"/>
    <path class="cls-5" d="M101.1,41.19c-3.34,3.95-6.34,8.18-8.93,12.67-.81,1.4,1.35,2.66,2.16,1.26,2.48-4.3,5.33-8.37,8.53-12.16.44-.51.51-1.26,0-1.77-.45-.45-1.33-.52-1.77,0h0Z"/>
    <path class="cls-5" d="M95.78,52.6c.43.1.85.22,1.27.36.11.04.23.08.34.12.01,0,.36.15.14.06.18.08.36.16.54.25.39.2.77.42,1.14.66.2.13.4.27.59.41.18.13-.02-.02.08.06.09.08.19.15.28.23.33.28.65.59.95.91.15.16.3.32.44.49.08.09.15.18.23.28-.11-.14.02.02.06.08.26.35.5.72.71,1.11.11.19.21.38.31.58.05.11.1.22.15.33.11.24-.05-.13.06.14.25.63.83,1.07,1.54.87.59-.16,1.13-.91.87-1.54-1.56-3.87-4.92-6.89-9.02-7.82-.64-.14-1.38.19-1.54.87-.14.64.19,1.38.87,1.54h0Z"/>
    <path class="cls-5" d="M108.31,54.14c2.21.11,4.32-.67,6.13-1.89s3.62-2.76,4.84-4.53.68-4.17-1.25-5.24c-2.07-1.15-4.53-.14-6.09,1.36s-3.04,3.73-3.99,5.79-1.57,4.3-1.14,6.51c.4,2.02,1.94,3.59,4.06,3.67,2.26.08,4.28-1.36,5.99-2.66,4.06-3.08,7.43-6.99,9.88-11.46.77-1.41-1.38-2.67-2.16-1.26-1.64,2.99-3.69,5.71-6.14,8.09-1.22,1.18-2.52,2.27-3.9,3.25-1.08.76-2.92,2.08-4.31,1.38-1.25-.63-1.15-2.53-.94-3.68.33-1.8,1.17-3.45,2.17-4.97.87-1.34,1.92-3.03,3.43-3.72.61-.28,1.38-.43,1.99-.07.54.32.75.86.46,1.43-.37.74-1.14,1.36-1.72,1.93-.69.67-1.41,1.32-2.19,1.87-1.53,1.08-3.2,1.81-5.1,1.72-1.61-.08-1.6,2.42,0,2.5h0Z"/>
    <path class="cls-5" d="M127.49,50.32c1.24,1.65,2.48,3.31,3.74,4.96,1.12,1.47,2.34,3.24,3.95,4.22,1.93,1.17,3.43-.52,4.64-1.87,1.28-1.43,2.4-3,3.34-4.68.73-1.3-1.27-2.47-2-1.17s-1.6,2.6-2.59,3.76c-.49.57-1,1.12-1.54,1.64-.09.09-.34.4-.49.41-.23.02-.7-.52-.84-.66-1.12-1.06-2.05-2.29-2.98-3.52-1.07-1.43-2.14-2.85-3.22-4.28-.38-.5-1-.76-1.58-.42-.49.29-.79,1.08-.42,1.58h0Z"/>
    <path class="cls-5" d="M155.68,53.5c4.21.27,10.55-1.63,11.1-6.62.21-1.93-.74-4.08-2.52-4.97-2.1-1.05-4.36.08-5.8,1.7-3.01,3.4-5.12,9.15-3.17,13.54.97,2.19,3.1,3.36,5.48,3.09s4.3-1.51,6.09-2.89c4.09-3.13,7.09-7.5,8.58-12.42.47-1.54-1.95-2.2-2.41-.66-.99,3.29-2.75,6.32-5.12,8.81-1.15,1.21-2.43,2.29-3.83,3.2s-3.14,1.86-4.79,1.43-2.1-2.16-2.19-3.61c-.11-1.91.34-3.82,1.15-5.54.72-1.52,1.73-3.45,3.27-4.28,1.27-.68,2.39.12,2.71,1.43.41,1.7-.91,3.12-2.26,3.94-1.88,1.14-4.12,1.5-6.29,1.37-1.61-.1-1.6,2.4,0,2.5h0Z"/>
    <path class="cls-5" d="M147.96,48.73c-.51,1.84-1.04,3.67-1.6,5.49-.28.91-.57,1.82-.86,2.73-.14.42-.27.84-.41,1.25-.07.21-.14.42-.21.63-.03.08-.33.81-.11.54l.51-.3-.11.03,1.13.3-.06-.04.34.82v-.08c-.05.19-.11.39-.16.58l.04-.06-1.31.53.05.02c1.43.45,2.04-1.79.62-2.23l-.05-.02c-.49-.16-1.05.1-1.31.53-.37.61-.18,1.41.44,1.77.66.39,1.45.01,1.8-.6.31-.56.46-1.29.67-1.9s.41-1.25.61-1.88c.79-2.48,1.53-4.97,2.22-7.48.4-1.44-1.84-2.05-2.23-.62h0Z"/>
    <path class="cls-5" d="M150.62,42.35c1.49,0,1.49-2.32,0-2.32s-1.49,2.32,0,2.32h0Z"/>
  </g>
  <g>
    <path class="cls-1" d="M190.93,81.74l11.1,12.52,1.51,1.69s.3,1.32.87,1.32,3.54-.75,5.16-1.52,4.95-2.73,6.51-4.91c.75-1.05,1.23-2.15,1.62-3.02.28-.63.5-1.15.63-1.48.02-.06.04-.12.06-.17.02-.04.03-.08.04-.11.08-.24.09-.41.06-.62-.03-.28-.17-.61-.7-1.21-.92-1.07-8.29-9.42-8.29-9.42l-5.53-6.2-1.01-1.13s-.39-.71-1.37-.08l-3.55-3.58-3.94-4.42s-.61-.86-1.45-.95l-4.97-5.58-6.05-6.8-3.41-3.06s-.62-.71-1.94-.56c-.6.07-1.34.25-2.25.88-1.91,1.35-2.19,3.27-2.16,4.58.01.66.08,1.17.09,1.37.03.61.2,5.28.88,6.3s5.2,6.71,5.8,7.3,3.17,4.32,3.17,4.32c0,0,1.07,1.3.94,2.04-.05.28.55,1.03,1.2,1.89,1.03,1.38,2.31,2.98,2.31,2.98l2.5,3.18s.7.53.08,1.2c-.69.75,2.08,3.23,2.08,3.23Z"/>
    <path class="cls-5" d="M182.73,68.82s2.07-.43,2.87-.67,3.28-1.33,4.15-2.06,2.31-2.54,2.54-3.73.55-3.53.53-3.71-6.82-7.67-6.82-7.67l-4.37-4.91-3.63-3.27s-.96-1.01-3.38.12-2.52,3.09-2.71,3.94c-.04.18-.05.57-.04,1.08.04,1.94.37,5.58.37,5.58,0,0-.3,1.42,1.98,4.11s6.26,7.87,6.26,7.87c0,0,2.21,3.09,2.25,3.32Z"/>
    <path class="cls-2" d="M189.06,78.17s2.99-.24,4.2-.82,3.09-1.67,4.26-2.83,3.38-4.07,3.8-5.25.28-1.88.28-1.88l-3.81-3.86-4.13-4.67s-.65-.43-.94-.41c-.14,0,.13.17.07.62-.18,1.36-.49,3.79-1.11,4.68s-2.01,2.55-3.26,3.15-3.81,1.54-4.67,1.68c-.41.07-.87.04-1.02.22-.06.07.01.4.03.52.02.22.06.29.23.55.5.77,4.67,6.1,4.67,6.1,0,0,1.3,1.47,1.32,1.67s.07.52.07.52Z"/>
    <path class="cls-4" d="M203.72,96.5s3.14-1.06,4.56-1.67,3.65-1.89,4.85-3.15,3.36-4.29,3.36-4.29l1.55-2.88s.73.54.38,1.54-1.49,3.48-1.89,4.16-2.36,2.94-3.8,3.82-3.73,2.1-5.09,2.48-2.76.82-3.24.75-.69-.77-.69-.77Z"/>
  </g>
  <g>
    <path class="cls-5" d="M66.56,90s6.93-1.41,13.32-8.12c6.39-6.71,12.67-11.05,18.84-10.4s8.85,2.06,9.03,2.82,5.92-5,12.63-2.88,13.64,8.84,16.57,11.44,8.56,7.15,11.8,7.15-10.18,13.1-13.54,15.05-13.54,7.26-25.02,7.69c-11.48.43-23.5-3.68-26.75-5.74-3.25-2.06-14.29-9.85-16.89-17Z"/>
    <path class="cls-3" d="M91.15,93.14s8.66-5.09,14.29-5.31,10.83.65,14.29,2.65,5.85,2.76,2.06,4.28c-3.79,1.52-8.34,3.9-16.14,3.03-7.8-.87-11.91-1.95-14.51-4.66Z"/>
  </g>
</svg>