<svg width="135" height="61" viewBox="0 0 135 61" fill="none" xmlns="http://www.w3.org/2000/svg">
<path d="M0.101421 34.3462C0.700016 35.5512 2.10256 36.1679 3.47453 36.2247C5.06059 36.2896 6.49372 35.4985 7.63848 34.5531C8.78324 33.6078 9.88868 32.3744 10.8892 31.21C11.8898 30.0456 12.8511 28.8 13.7337 27.5341C17.2728 22.4423 19.7327 16.7582 21.6334 10.9807C22.717 7.69029 23.6214 4.35526 24.4428 0.999939L22.8044 0.582046C21.8824 6.68816 21.5722 12.8835 22.0048 19.0383C22.0791 20.0648 22.6252 21.6309 24.1064 21.2049C24.7574 21.0182 25.1201 20.4665 25.4653 19.9634C25.8935 19.3426 26.3129 18.7137 26.7236 18.0808C28.2966 15.6546 29.7341 13.1513 31.023 10.5871C32.4867 7.68218 33.767 4.69606 34.8593 1.65315C35.2045 0.687533 33.566 0.273697 33.2208 1.23526C31.4818 6.07957 29.2491 10.7575 26.5532 15.2083C25.8716 16.3362 25.1594 17.4479 24.421 18.5393C24.2462 18.7989 24.0671 19.0586 23.8879 19.3183C23.7962 19.4481 23.3636 19.8498 23.8311 19.7118C23.9666 19.6713 23.8224 19.8417 23.8311 19.6712C23.8311 19.5982 23.7612 19.4684 23.7438 19.3913C23.6782 19.083 23.687 18.7543 23.6695 18.4419C23.5078 15.7276 23.4772 13.0093 23.5777 10.291C23.6913 7.18314 23.9797 4.07937 24.4428 0.995882C24.5084 0.573931 24.3336 0.147924 23.8486 0.0262072C23.4204 -0.0833377 22.9049 0.160095 22.8044 0.577989C21.4411 6.1242 19.8594 11.642 17.6049 16.9407C15.3503 22.2395 12.4797 27.1365 8.53856 31.3763C7.49866 32.4961 6.36264 33.8228 4.85523 34.4071C3.70173 34.8574 2.14189 34.6992 1.56951 33.5469C1.37726 33.1615 0.774295 33.0601 0.407273 33.2629C-0.0209198 33.4982 -0.0908288 33.9527 0.101421 34.3421V34.3462Z" fill="#E7CDCF"/>
<path d="M33.1646 15.2813C30.5518 20.5557 27.8646 25.7976 25.112 31.0111C24.6313 31.9199 26.0994 32.7192 26.5801 31.8063C29.3327 26.5928 32.0198 21.3509 34.6327 16.0765C34.8249 15.687 34.7507 15.2285 34.3268 14.9973C33.9642 14.7944 33.3569 14.8958 33.1646 15.2813Z" fill="#E7CDCF"/>
<path d="M40.5305 18.4378C39.2459 18.592 37.922 18.1984 36.6812 18.6528C35.4403 19.1073 34.7587 20.2352 34.147 21.2616C32.8143 23.5012 32.006 25.9518 31.6827 28.4875C31.6521 28.735 31.8618 29.0677 32.1021 29.1692C33.6314 29.8142 34.9203 28.7999 35.9952 27.8708C37.07 26.9417 37.9876 25.9437 38.8221 24.8563C40.4781 22.6938 41.6578 20.2068 42.2608 17.6101C42.4923 16.6242 40.8932 16.1982 40.6223 17.1922C40.2159 18.6772 39.9756 20.2027 39.9363 21.7323C39.9013 23.0428 39.8707 24.548 40.4825 25.7651C41.0942 26.9823 42.453 27.4651 43.7682 26.9174C45.1532 26.3453 46.2762 25.0308 47.2461 23.9881C47.9583 23.2213 46.7611 22.1015 46.0446 22.8723C45.28 23.7 44.4498 24.6413 43.4798 25.2661C43.1521 25.4771 42.689 25.7286 42.3132 25.469C42.0161 25.2621 41.8981 24.8442 41.8195 24.5277C41.5573 23.485 41.601 22.3206 41.6622 21.2576C41.7277 20.0242 41.9418 18.8111 42.2695 17.6142L40.631 17.1963C40.1154 19.4075 39.1804 21.497 37.8521 23.3957C37.2098 24.3127 36.4802 25.1687 35.6675 25.964C35.248 26.3737 34.8067 26.7673 34.3479 27.1405C34.0683 27.3677 33.3911 27.9926 32.9672 27.814L33.3867 28.4957C33.6576 26.3697 34.361 24.2761 35.4359 22.3814C35.851 21.6471 36.3666 20.5151 37.2361 20.15C38.2192 19.7442 39.4906 20.15 40.5305 20.0242C40.9849 19.9674 41.3825 19.6996 41.3825 19.233C41.3825 18.8476 40.9893 18.3891 40.5305 18.4419V18.4378Z" fill="#E7CDCF"/>
<path d="M50.3045 1.63686C50.038 8.30286 49.4176 14.9608 48.4214 21.5659C48.1373 23.4403 47.8271 25.3107 47.4863 27.177C47.3072 28.1711 48.9457 28.5971 49.1248 27.5949C50.3395 20.9086 51.2002 14.1696 51.6809 7.40216C51.8163 5.47904 51.9212 3.55592 51.9998 1.6328C52.0391 0.618494 50.3395 0.618494 50.3002 1.6328L50.3045 1.63686Z" fill="#E7CDCF"/>
<path d="M54.4329 14.9405C52.1608 17.4357 50.1204 20.1094 48.3639 22.9413C47.8177 23.8217 49.2858 24.6169 49.832 23.7365C51.5185 21.0222 53.4541 18.45 55.6344 16.0562C55.9315 15.7316 55.9796 15.2569 55.6344 14.9405C55.3286 14.6565 54.73 14.6118 54.4329 14.9405Z" fill="#E7CDCF"/>
<path d="M50.8117 22.1502C51.1044 22.211 51.3884 22.2881 51.6724 22.3774C51.7511 22.4017 51.8254 22.4301 51.8996 22.4544C51.9084 22.4544 52.1443 22.5518 51.9958 22.491C52.1181 22.5437 52.2448 22.5964 52.3628 22.6532C52.6293 22.779 52.8871 22.917 53.1362 23.0671C53.2716 23.1482 53.407 23.2375 53.5381 23.3267C53.6561 23.4079 53.525 23.3146 53.5906 23.3633C53.6517 23.4119 53.7173 23.4606 53.7784 23.5093C54.0056 23.6878 54.2241 23.8826 54.4251 24.0814C54.5256 24.1828 54.6261 24.2842 54.7222 24.3938C54.7746 24.4506 54.8271 24.5115 54.8751 24.5683C54.8009 24.4831 54.8839 24.5845 54.9145 24.621C55.0892 24.8441 55.2509 25.0795 55.3995 25.3188C55.4737 25.4406 55.5436 25.5623 55.6092 25.688C55.6441 25.757 55.6791 25.826 55.714 25.895C55.7883 26.0451 55.6835 25.8138 55.7534 25.9842C55.9238 26.3778 56.3214 26.6577 56.7976 26.536C57.1996 26.4346 57.5623 25.9639 57.3919 25.5663C56.3301 23.1198 54.045 21.217 51.253 20.6287C50.8204 20.5394 50.3136 20.7504 50.2087 21.1805C50.1082 21.5821 50.3398 22.0528 50.8029 22.1502H50.8117Z" fill="#E7CDCF"/>
<path d="M59.3358 23.1158C60.8214 23.1888 62.2502 22.7019 63.4736 21.9392C64.697 21.1764 65.8942 20.2068 66.7505 19.1154C67.6069 18.024 67.288 16.4173 65.9247 15.7398C64.5615 15.0622 62.8356 15.6708 61.7652 16.6405C60.6947 17.6101 59.7771 18.9125 59.1348 20.1662C58.4925 21.4199 58.0294 22.9048 58.3047 24.3329C58.5625 25.6759 59.716 26.7186 61.2277 26.6861C62.7395 26.6537 64.1115 25.7489 65.2868 24.9091C67.9871 22.9819 70.2329 20.5435 71.8714 17.7684C72.3957 16.8758 70.9276 16.0806 70.4033 16.9731C69.2847 18.8719 67.8822 20.5962 66.2087 22.0974C65.3567 22.8602 64.4479 23.5702 63.4736 24.195C62.7439 24.6656 61.4593 25.4811 60.5505 24.9537C59.7509 24.4871 59.8601 23.2943 60.0218 22.564C60.2665 21.4604 60.8258 20.4542 61.4855 19.517C62.0754 18.6812 62.7745 17.6507 63.775 17.2004C64.1814 17.0178 64.7144 16.9163 65.1295 17.1354C65.5228 17.3424 65.6713 17.6953 65.4572 18.0645C65.182 18.5392 64.6445 18.9531 64.2338 19.3223C63.7925 19.7199 63.3337 20.1013 62.8313 20.434C61.7826 21.1277 60.6379 21.6024 59.3358 21.5375C58.2435 21.4848 58.2435 23.063 59.3358 23.1158Z" fill="#E7CDCF"/>
<path d="M72.3832 20.7099C73.2308 21.7566 74.0697 22.8034 74.9218 23.842C75.682 24.7711 76.5122 25.8909 77.6045 26.5076C78.9197 27.2501 79.9334 26.183 80.7592 25.327C81.633 24.4263 82.3933 23.4322 83.0312 22.3733C83.5249 21.5497 82.1661 20.8113 81.6723 21.6349C81.1786 22.4585 80.5888 23.2781 79.9115 24.0084C79.5794 24.3695 79.2299 24.7184 78.8629 25.047C78.8017 25.1038 78.6313 25.2986 78.5308 25.3067C78.3735 25.3229 78.0546 24.974 77.9584 24.8888C77.1982 24.2193 76.5603 23.4444 75.9311 22.6654C75.2014 21.7647 74.4717 20.864 73.742 19.9633C73.4886 19.6469 73.0604 19.4846 72.6628 19.6996C72.3264 19.8822 72.121 20.3812 72.3788 20.7017L72.3832 20.7099Z" fill="#E7CDCF"/>
<path d="M91.5549 22.7141C94.3731 22.8845 98.5982 21.7323 99.0832 18.6772C99.2799 17.4479 98.6944 16.0643 97.4928 15.4476C96.0684 14.7133 94.4867 15.403 93.4862 16.4335C91.402 18.5839 89.9689 22.2435 91.2971 25.0348C91.9438 26.39 93.3813 27.1446 94.963 26.9823C96.5447 26.82 97.9647 26.0126 99.2187 25.116C101.971 23.1442 103.999 20.3974 104.999 17.3099C105.314 16.3362 103.675 15.9183 103.361 16.892C102.675 19.0018 101.456 20.9411 99.8085 22.5275C98.974 23.3268 98.0477 24.0408 97.0253 24.6251C96.1427 25.1282 94.8756 25.7083 93.8226 25.327C92.7696 24.9456 92.5249 23.7122 92.5162 22.7831C92.5031 21.5943 92.8613 20.4218 93.4337 19.3629C93.9231 18.4581 94.6309 17.2206 95.7058 16.8149C96.5752 16.4863 97.2525 17.1354 97.4011 17.8982C97.6108 18.9571 96.6714 19.8335 95.7669 20.3204C94.4998 21.006 93.0055 21.2332 91.5549 21.144C90.4626 21.0791 90.467 22.6573 91.5549 22.7222V22.7141Z" fill="#E7CDCF"/>
<path d="M86.3032 19.6996C85.958 20.8599 85.5954 22.0162 85.2152 23.1644C85.023 23.7406 84.8307 24.3126 84.6297 24.8847C84.538 25.1484 84.4462 25.4121 84.3501 25.6759C84.302 25.8097 84.254 25.9396 84.2103 26.0694C84.1928 26.1221 83.9831 26.5766 84.136 26.4102L84.4855 26.2236L84.4113 26.2439L85.1759 26.4305L85.1366 26.4021L85.3682 26.9174V26.8687C85.3332 26.9904 85.2939 27.1162 85.2589 27.2379L85.2851 27.2014L84.3938 27.5381L84.4287 27.5503C85.3987 27.8343 85.8138 26.4224 84.8482 26.1384L84.8132 26.1262C84.4768 26.0288 84.1011 26.1911 83.9219 26.463C83.6685 26.8484 83.7996 27.3515 84.219 27.5787C84.6691 27.8221 85.2065 27.5868 85.4424 27.1973C85.6565 26.8403 85.757 26.3818 85.8968 25.9964C86.0367 25.6109 86.1765 25.2052 86.3119 24.8076C86.8493 23.2415 87.3518 21.6673 87.8237 20.081C88.0946 19.1721 86.5741 18.7826 86.3032 19.6915V19.6996Z" fill="#E7CDCF"/>
<path d="M88.1157 15.6748C89.1294 15.6748 89.1294 14.2102 88.1157 14.2102C87.102 14.2102 87.102 15.6748 88.1157 15.6748Z" fill="#E7CDCF"/>
<path d="M115.525 40.5497L123.076 48.4572L124.107 49.5283C124.107 49.5283 124.312 50.36 124.697 50.36C125.081 50.36 127.104 49.8853 128.21 49.4025C129.311 48.9156 131.574 47.6782 132.64 46.3028C133.151 45.6415 133.475 44.9477 133.737 44.3959C133.925 43.9983 134.078 43.6737 134.165 43.4587C134.182 43.4181 134.196 43.3816 134.209 43.3491C134.222 43.3207 134.23 43.2964 134.235 43.2761C134.292 43.126 134.296 43.0124 134.279 42.8826C134.257 42.7081 134.161 42.5012 133.807 42.1158C133.182 41.4423 128.166 36.1679 128.166 36.1679L124.404 32.2567L123.718 31.5467C123.718 31.5467 123.451 31.1004 122.787 31.498L120.371 29.2381L117.688 26.4468C117.688 26.4468 117.278 25.8991 116.705 25.8463L113.323 22.3206L109.212 18.0281L106.892 16.0968C106.892 16.0968 106.468 15.6505 105.577 15.7438C105.166 15.7885 104.663 15.898 104.047 16.3037C102.745 17.1558 102.562 18.3689 102.575 19.1965C102.584 19.6144 102.632 19.935 102.636 20.0607C102.653 20.4462 102.776 23.3958 103.239 24.0368C103.702 24.6778 106.778 28.2725 107.184 28.6458C107.591 29.0191 109.339 31.3722 109.339 31.3722C109.339 31.3722 110.064 32.1959 109.976 32.6624C109.942 32.841 110.352 33.3116 110.789 33.8553C111.488 34.7235 112.362 35.7419 112.362 35.7419L114.062 37.7502C114.062 37.7502 114.538 38.0829 114.119 38.5089C113.651 38.9836 115.53 40.5497 115.53 40.5497H115.525Z" fill="#0E0C0C"/>
<path d="M109.95 32.3946C109.95 32.3946 111.357 32.1228 111.903 31.9686C112.449 31.8145 114.136 31.1288 114.726 30.6663C115.316 30.2038 116.299 29.0596 116.456 28.3131C116.613 27.5666 116.827 26.0857 116.819 25.9721C116.81 25.8585 112.178 21.1237 112.178 21.1237L109.207 18.0199L106.734 15.9548C106.734 15.9548 106.083 15.3138 104.436 16.0278C102.789 16.7419 102.719 17.9834 102.592 18.519C102.566 18.6326 102.562 18.8801 102.566 19.2006C102.597 20.4259 102.815 22.7263 102.815 22.7263C102.815 22.7263 102.61 23.6229 104.161 25.3229C105.716 27.0229 108.416 30.289 108.416 30.289C108.416 30.289 109.919 32.2405 109.946 32.3865L109.95 32.3946Z" fill="#E7CDCF"/>
<path d="M114.254 38.2979C114.254 38.2979 116.29 38.1437 117.112 37.7786C117.933 37.4134 119.213 36.7237 120.008 35.9934C120.804 35.2631 122.307 33.4252 122.595 32.6787C122.883 31.9321 122.783 31.4899 122.783 31.4899L120.196 29.0515L117.387 26.1019C117.387 26.1019 116.946 25.8301 116.749 25.8423C116.653 25.8504 116.836 25.9518 116.797 26.2317C116.675 27.0919 116.465 28.6214 116.041 29.1895C115.617 29.7575 114.678 30.7961 113.822 31.1816C112.969 31.567 111.231 32.1553 110.649 32.2445C110.374 32.2892 110.06 32.2689 109.955 32.3825C109.911 32.4271 109.963 32.634 109.972 32.7111C109.99 32.8531 110.016 32.8896 110.129 33.056C110.47 33.5469 113.306 36.9063 113.306 36.9063C113.306 36.9063 114.193 37.8354 114.206 37.9612C114.219 38.0869 114.254 38.2857 114.254 38.2857V38.2979Z" fill="#E3E3E3"/>
<path d="M124.225 49.8731C124.225 49.8731 126.361 49.2037 127.327 48.8183C128.292 48.4328 129.809 47.6254 130.63 46.8302C131.451 46.035 132.915 44.12 132.915 44.12L133.968 42.3024C133.968 42.3024 134.462 42.6391 134.23 43.272C133.999 43.905 133.212 45.4711 132.941 45.9011C132.67 46.3312 131.338 47.7593 130.359 48.3111C129.38 48.8629 127.821 49.6378 126.899 49.8812C125.977 50.1247 125.02 50.4006 124.697 50.3559C124.373 50.3113 124.229 49.8731 124.229 49.8731H124.225Z" fill="#DABC36"/>
<path d="M30.9438 45.7673C30.9438 45.7673 35.6583 44.8787 40.0014 40.6389C44.3489 36.3991 48.6177 33.6646 52.8166 34.0744C57.0155 34.4841 58.8375 35.3727 58.9555 35.8514C59.0734 36.3302 62.9796 32.6908 67.5455 34.0338C72.1115 35.3767 76.826 39.6125 78.814 41.2556C80.802 42.8988 84.6339 45.7713 86.8404 45.7713C89.0469 45.7713 79.9194 54.048 77.6343 55.2774C75.3491 56.5067 68.4281 59.858 60.6202 60.1339C52.8122 60.4057 44.6372 57.8091 42.4307 56.5108C40.2199 55.2125 32.709 50.287 30.9395 45.7754L30.9438 45.7673Z" fill="#E7CDCF"/>
<path d="M47.6655 47.7512C47.6655 47.7512 53.5553 44.5379 57.3872 44.3999C61.2191 44.262 64.7539 44.8097 67.1089 46.0756C69.464 47.3414 71.085 47.8202 68.5071 48.7777C65.9292 49.7352 62.8357 51.2404 57.5314 50.6927C52.2271 50.145 49.4307 49.4633 47.6611 47.7512H47.6655Z" fill="white"/>
</svg>
