<svg width="135" height="71" viewBox="0 0 135 71" fill="none" xmlns="http://www.w3.org/2000/svg">
<path d="M2.40822 29.8442C1.59484 29.8442 0.800715 29.4058 0.348303 28.6156C-0.339942 27.4124 0.0234322 25.8448 1.15928 25.1157C12.4648 17.8586 24.1553 10.3542 36.2477 3.99945C40.098 1.97551 44.2347 0 48.7564 0H48.7757C57.1405 0.0101962 63.7318 6.63007 69.2498 12.8344C70.1618 13.8592 70.1161 15.4727 69.1487 16.4388C68.1813 17.4049 66.658 17.3565 65.746 16.3317C60.6924 10.6525 55.2202 5.10829 48.7685 5.09809H48.754C45.2695 5.09809 41.862 6.73713 38.3846 8.56479C26.4751 14.8252 14.8736 22.2736 3.65236 29.4746C3.26251 29.7244 2.83176 29.8442 2.40822 29.8442Z" fill="#444444"/>
<path d="M132.594 29.8442C132.17 29.8442 131.74 29.7244 131.35 29.4746C120.129 22.2736 108.527 14.8252 96.6152 8.56479C93.1379 6.73713 89.7279 5.09809 86.2458 5.09809H86.2313C79.7797 5.10574 74.305 10.6525 69.2538 16.3317C68.3418 17.3565 66.8185 17.4049 65.8511 16.4388C64.8837 15.4727 64.838 13.8592 65.7501 12.8344C71.2705 6.63007 77.8593 0.0101962 86.2241 0H86.2434C90.7651 0 94.9018 1.97551 98.7521 3.99945C110.845 10.3542 122.535 17.8586 133.841 25.1157C134.976 25.8448 135.34 27.4124 134.652 28.6156C134.199 29.4058 133.405 29.8442 132.592 29.8442H132.594Z" fill="#444444"/>
<path d="M68.3882 70.6851C56.6086 70.6851 44.6028 67.8455 33.5885 62.4466C22.2277 56.8769 12.1446 48.6919 4.42476 38.7736C3.58009 37.6877 3.72448 36.0818 4.74963 35.1845C5.77478 34.2898 7.29084 34.4428 8.13791 35.5287C15.4006 44.8607 24.9012 52.569 35.6099 57.8175C46.3186 63.0686 58.0116 65.7502 69.4302 65.5768C80.8464 65.4035 92.4647 62.365 103.027 56.7903C113.589 51.2155 122.875 43.2217 129.883 33.673C130.698 32.5616 132.21 32.3602 133.259 33.2243C134.308 34.0885 134.498 35.6893 133.682 36.8006C126.234 46.9509 116.378 55.4393 105.173 61.3531C93.9688 67.2668 81.6333 70.4888 69.5 70.6749C69.1294 70.68 68.7588 70.6826 68.3882 70.6826V70.6851Z" fill="#444444"/>
<path d="M67.4908 44.4808C57.2345 44.4808 46.9807 42.1739 37.6316 37.5627C36.426 36.9687 35.9062 35.4521 36.4669 34.175C37.0276 32.8979 38.4594 32.3448 39.665 32.9412C48.1791 37.1421 57.8025 39.3623 67.4932 39.3623H67.5053C77.2008 39.3623 86.8267 37.137 95.3431 32.931C96.5487 32.3371 97.9805 32.8877 98.5412 34.1648C99.1019 35.4419 98.5822 36.9585 97.3765 37.5525C88.0202 42.1713 77.7567 44.4833 67.4932 44.4833L67.4908 44.4808Z" fill="#444444"/>
</svg>
