<svg width="135" height="138" viewBox="0 0 135 138" fill="none" xmlns="http://www.w3.org/2000/svg">
<path d="M9.25006 137.886C8.49136 137.886 7.73266 137.582 7.17286 136.978C-0.26923 128.96 -2.14751 116.462 2.60929 106.583C5.3372 100.918 9.77859 96.6297 14.0722 92.4846C15.5981 91.0132 17.1752 89.4903 18.6131 87.9588C27.8198 78.1514 34.3241 64.7972 37.95 48.2684C41.2093 33.4028 41.789 17.8243 42.3488 2.75833C42.4084 1.17816 43.7326 -0.0527702 45.2955 0.00448233C46.864 0.0645975 48.0888 1.39286 48.0291 2.97303C47.4608 18.291 46.8726 34.1327 43.4996 49.5022C39.6493 67.0587 32.6675 81.3203 22.7447 91.892C21.2103 93.5266 19.5792 95.101 18.005 96.6211C13.8904 100.592 10.0059 104.342 7.72413 109.082C4.03008 116.754 5.54748 126.842 11.3273 133.071C12.3985 134.225 12.3389 136.037 11.1937 137.116C10.6453 137.631 9.94909 137.889 9.2529 137.889L9.25006 137.886Z" fill="#444444"/>
<path d="M125.749 137.886C125.053 137.886 124.357 137.631 123.808 137.113C122.663 136.034 122.601 134.222 123.675 133.068C129.457 126.839 130.972 116.751 127.278 109.079C124.996 104.339 121.109 100.589 116.997 96.6182C115.423 95.0981 113.792 93.5265 112.257 91.8891C102.334 81.3174 95.3498 67.0558 91.5023 49.4993C88.1322 34.1299 87.544 18.2881 86.9728 2.97016C86.9131 1.38999 88.1378 0.0617321 89.7064 0.00161694C91.2749 -0.052773 92.5934 1.17529 92.6531 2.75547C93.2129 17.8215 93.7926 33.397 97.0519 48.2655C100.678 64.7943 107.182 78.1485 116.389 87.9559C117.827 89.4874 119.404 91.0103 120.93 92.4817C125.223 96.6268 129.665 100.912 132.393 106.58C137.147 116.459 135.268 128.96 127.826 136.978C127.266 137.582 126.511 137.886 125.749 137.886Z" fill="#444444"/>
<path d="M59.0182 137.889C57.839 137.889 56.7365 137.142 56.3301 135.954C54.7275 131.247 49.9792 127.701 45.0434 127.526C40.1104 127.346 35.1206 130.546 33.1911 135.126C32.5774 136.581 30.9094 137.262 29.4658 136.644C28.0223 136.025 27.3489 134.345 27.9598 132.891C30.8213 126.103 37.9281 121.549 45.2451 121.807C52.5622 122.07 59.3308 127.122 61.7064 134.099C62.215 135.593 61.4251 137.222 59.9418 137.737C59.6349 137.843 59.3251 137.892 59.0182 137.892V137.889Z" fill="#444444"/>
<path d="M77.0125 137.889C76.7056 137.889 76.3959 137.837 76.089 137.734C74.6057 137.222 73.8129 135.593 74.3244 134.096C76.6999 127.12 83.4686 122.067 90.7856 121.804C98.1027 121.546 105.209 126.1 108.071 132.888C108.685 134.342 108.011 136.022 106.565 136.641C105.121 137.259 103.453 136.58 102.84 135.123C100.907 130.543 95.9204 127.343 90.9874 127.523C86.0516 127.701 81.3033 131.245 79.7006 135.951C79.2971 137.139 78.1946 137.886 77.0125 137.886V137.889Z" fill="#444444"/>
</svg>
